<svg width="60" height="384" viewBox="0 0 60 384" fill="none" xmlns="http://www.w3.org/2000/svg">
<path d="M12.3509 -44.1635L11.9506 -43.8827C6.85879 -40.3091 0.208543 -35.6419 0.198632 -26.094C0.18872 -16.5457 6.82885 -11.8651 11.9131 -8.28177L12.3133 -7.99927C17.4417 -4.37751 19.7509 -2.5307 19.7474 0.832767C19.7549 0.977131 19.7575 1.12194 19.7552 1.26673L19.7469 1.26672C19.7434 4.66595 17.4644 6.5442 12.2946 10.0829L11.8943 10.3637C6.80248 13.9373 0.15223 18.6045 0.142319 28.1524C0.132407 37.7007 6.77253 42.3813 11.8567 45.9646L12.257 46.2471C17.3854 49.8689 19.6946 51.7157 19.6911 55.0792C19.7029 55.3079 19.7026 55.5374 19.6904 55.7661L29.8865 55.7767L29.8873 55.0898C29.8972 45.5543 23.0742 40.7375 17.9651 37.1312L17.7726 36.995C12.6442 33.3733 10.335 31.5265 10.3385 28.163C10.342 24.8 12.6212 22.7407 17.7909 19.3468C22.9159 15.9825 29.8142 11.1619 29.9429 1.53026C29.944 1.44638 29.943 1.36207 29.9431 1.27731L29.9436 0.843351C29.9535 -8.69215 23.1305 -13.5089 18.0214 -17.1152L17.8289 -17.2514C12.7005 -20.8731 10.3913 -22.7199 10.3948 -26.0834C10.3983 -29.4464 12.6775 -31.5057 17.8472 -34.8996C23.0168 -38.2934 29.9893 -43.1687 29.9994 -52.9691L19.8033 -52.9797C19.7997 -49.5804 17.5207 -47.7022 12.3509 -44.1635Z" fill="#FAAD1C"/>
<path d="M12.2385 64.6221L11.8383 64.9042C6.74643 68.4941 0.0961565 73.1826 0.0861999 82.7739C0.0762429 92.3656 6.71635 97.0674 11.8005 100.667L12.2008 100.951C17.3292 104.589 19.6383 106.444 19.6348 109.823C19.6424 109.968 19.6449 110.113 19.6427 110.259L19.6344 110.259C19.6308 113.674 17.3518 115.56 12.182 119.115L11.7817 119.397C6.68986 122.987 0.0395878 127.676 0.0296312 137.267C0.0196741 146.859 6.65978 151.56 11.744 155.16L12.1442 155.444C17.2726 159.082 19.5818 160.937 19.5783 164.316C19.5901 164.546 19.5898 164.776 19.5775 165.006L29.7737 165.017L29.7744 164.327C29.7844 154.748 22.9615 149.909 17.8524 146.286L17.6598 146.15C12.5315 142.511 10.2223 140.656 10.2258 137.277C10.2293 133.899 12.5086 131.831 17.6782 128.421C22.8033 125.042 29.7016 120.199 29.8303 110.524C29.8314 110.439 29.8305 110.355 29.8306 110.269L29.831 109.834C29.841 100.255 23.018 95.4161 17.909 91.7934L17.7164 91.6566C12.5881 88.0184 10.2789 86.1632 10.2824 82.7845C10.2859 79.4061 12.5651 77.3375 17.7348 73.9282C22.9045 70.5189 29.8769 65.6214 29.8871 55.7765L19.6909 55.7659C19.6874 59.1806 17.4084 61.0674 12.2385 64.6221Z" fill="#FAAD1C"/>
<path d="M12.3509 173.836L11.9506 174.117C6.85879 177.691 0.208543 182.358 0.198632 191.906C0.18872 201.454 6.82885 206.135 11.9131 209.718L12.3133 210.001C17.4417 213.622 19.7509 215.469 19.7474 218.833C19.7549 218.977 19.7575 219.122 19.7552 219.267L19.7469 219.267C19.7434 222.666 17.4644 224.544 12.2946 228.083L11.8943 228.364C6.80248 231.937 0.15223 236.605 0.142319 246.152C0.132407 255.701 6.77253 260.381 11.8567 263.965L12.257 264.247C17.3854 267.869 19.6946 269.716 19.6911 273.079C19.7029 273.308 19.7026 273.537 19.6904 273.766L29.8865 273.777L29.8873 273.09C29.8972 263.554 23.0742 258.737 17.9651 255.131L17.7726 254.995C12.6442 251.373 10.335 249.526 10.3385 246.163C10.342 242.8 12.6212 240.741 17.7909 237.347C22.9159 233.983 29.8142 229.162 29.9429 219.53C29.944 219.446 29.943 219.362 29.9431 219.277L29.9436 218.843C29.9535 209.308 23.1305 204.491 18.0214 200.885L17.8289 200.749C12.7005 197.127 10.3913 195.28 10.3948 191.917C10.3983 188.554 12.6775 186.494 17.8472 183.1C23.0168 179.707 29.9893 174.831 29.9994 165.031L19.8033 165.02C19.7997 168.42 17.5207 170.298 12.3509 173.836Z" fill="#FAAD1C"/>
<path d="M12.2385 282.622L11.8383 282.904C6.74643 286.494 0.0961565 291.183 0.0861999 300.774C0.0762429 310.366 6.71635 315.067 11.8005 318.667L12.2008 318.951C17.3292 322.589 19.6383 324.444 19.6348 327.823C19.6424 327.968 19.6449 328.113 19.6427 328.259L19.6344 328.259C19.6308 331.674 17.3518 333.56 12.182 337.115L11.7817 337.397C6.68986 340.987 0.0395878 345.676 0.0296312 355.267C0.0196741 364.859 6.65978 369.56 11.744 373.16L12.1442 373.444C17.2726 377.082 19.5818 378.937 19.5783 382.316C19.5901 382.546 19.5898 382.776 19.5775 383.006L29.7737 383.017L29.7744 382.327C29.7844 372.748 22.9615 367.909 17.8524 364.286L17.6598 364.15C12.5315 360.511 10.2223 358.656 10.2258 355.277C10.2293 351.899 12.5086 349.831 17.6782 346.421C22.8033 343.042 29.7016 338.199 29.8303 328.524C29.8314 328.439 29.8305 328.355 29.8306 328.269L29.831 327.834C29.841 318.255 23.018 313.416 17.909 309.793L17.7164 309.657C12.5881 306.018 10.2789 304.163 10.2824 300.784C10.2859 297.406 12.5651 295.338 17.7348 291.928C22.9045 288.519 29.8769 283.621 29.8871 273.776L19.6909 273.766C19.6874 277.181 17.4084 279.067 12.2385 282.622Z" fill="#FAAD1C"/>
<path d="M12.3509 -44.1635L11.9506 -43.8827C6.85879 -40.3091 0.208543 -35.6419 0.198632 -26.094C0.18872 -16.5457 6.82885 -11.8651 11.9131 -8.28177L12.3133 -7.99927C17.4417 -4.37751 19.7509 -2.5307 19.7474 0.832767C19.7549 0.977131 19.7575 1.12194 19.7552 1.26673L19.7469 1.26672C19.7434 4.66595 17.4644 6.5442 12.2946 10.0829L11.8943 10.3637C6.80248 13.9373 0.15223 18.6045 0.142319 28.1524C0.132407 37.7007 6.77253 42.3813 11.8567 45.9646L12.257 46.2471C17.3854 49.8689 19.6946 51.7157 19.6911 55.0792C19.7029 55.3079 19.7026 55.5374 19.6904 55.7661L29.8865 55.7767L29.8873 55.0898C29.8972 45.5543 23.0742 40.7375 17.9651 37.1312L17.7726 36.995C12.6442 33.3733 10.335 31.5265 10.3385 28.163C10.342 24.8 12.6212 22.7407 17.7909 19.3468C22.9159 15.9825 29.8142 11.1619 29.9429 1.53026C29.944 1.44638 29.943 1.36207 29.9431 1.27731L29.9436 0.843351C29.9535 -8.69215 23.1305 -13.5089 18.0214 -17.1152L17.8289 -17.2514C12.7005 -20.8731 10.3913 -22.7199 10.3948 -26.0834C10.3983 -29.4464 12.6775 -31.5057 17.8472 -34.8996C23.0168 -38.2934 29.9893 -43.1687 29.9994 -52.9691L19.8033 -52.9797C19.7997 -49.5804 17.5207 -47.7022 12.3509 -44.1635Z" fill="#FAAD1C"/>
<path d="M12.2385 64.6221L11.8383 64.9042C6.74643 68.4941 0.0961565 73.1826 0.0861999 82.7739C0.0762429 92.3656 6.71635 97.0674 11.8005 100.667L12.2008 100.951C17.3292 104.589 19.6383 106.444 19.6348 109.823C19.6424 109.968 19.6449 110.113 19.6427 110.259L19.6344 110.259C19.6308 113.674 17.3518 115.56 12.182 119.115L11.7817 119.397C6.68986 122.987 0.0395878 127.676 0.0296312 137.267C0.0196741 146.859 6.65978 151.56 11.744 155.16L12.1442 155.444C17.2726 159.082 19.5818 160.937 19.5783 164.316C19.5901 164.546 19.5898 164.776 19.5775 165.006L29.7737 165.017L29.7744 164.327C29.7844 154.748 22.9615 149.909 17.8524 146.286L17.6598 146.15C12.5315 142.511 10.2223 140.656 10.2258 137.277C10.2293 133.899 12.5086 131.831 17.6782 128.421C22.8033 125.042 29.7016 120.199 29.8303 110.524C29.8314 110.439 29.8305 110.355 29.8306 110.269L29.831 109.834C29.841 100.255 23.018 95.4161 17.909 91.7934L17.7164 91.6566C12.5881 88.0184 10.2789 86.1632 10.2824 82.7845C10.2859 79.4061 12.5651 77.3375 17.7348 73.9282C22.9045 70.5189 29.8769 65.6214 29.8871 55.7765L19.6909 55.7659C19.6874 59.1806 17.4084 61.0674 12.2385 64.6221Z" fill="#FAAD1C"/>
<path d="M12.3509 173.836L11.9506 174.117C6.85879 177.691 0.208543 182.358 0.198632 191.906C0.18872 201.454 6.82885 206.135 11.9131 209.718L12.3133 210.001C17.4417 213.622 19.7509 215.469 19.7474 218.833C19.7549 218.977 19.7575 219.122 19.7552 219.267L19.7469 219.267C19.7434 222.666 17.4644 224.544 12.2946 228.083L11.8943 228.364C6.80248 231.937 0.15223 236.605 0.142319 246.152C0.132407 255.701 6.77253 260.381 11.8567 263.965L12.257 264.247C17.3854 267.869 19.6946 269.716 19.6911 273.079C19.7029 273.308 19.7026 273.537 19.6904 273.766L29.8865 273.777L29.8873 273.09C29.8972 263.554 23.0742 258.737 17.9651 255.131L17.7726 254.995C12.6442 251.373 10.335 249.526 10.3385 246.163C10.342 242.8 12.6212 240.741 17.7909 237.347C22.9159 233.983 29.8142 229.162 29.9429 219.53C29.944 219.446 29.943 219.362 29.9431 219.277L29.9436 218.843C29.9535 209.308 23.1305 204.491 18.0214 200.885L17.8289 200.749C12.7005 197.127 10.3913 195.28 10.3948 191.917C10.3983 188.554 12.6775 186.494 17.8472 183.1C23.0168 179.707 29.9893 174.831 29.9994 165.031L19.8033 165.02C19.7997 168.42 17.5207 170.298 12.3509 173.836Z" fill="#FAAD1C"/>
<path d="M12.2385 282.622L11.8383 282.904C6.74643 286.494 0.0961565 291.183 0.0861999 300.774C0.0762429 310.366 6.71635 315.067 11.8005 318.667L12.2008 318.951C17.3292 322.589 19.6383 324.444 19.6348 327.823C19.6424 327.968 19.6449 328.113 19.6427 328.259L19.6344 328.259C19.6308 331.674 17.3518 333.56 12.182 337.115L11.7817 337.397C6.68986 340.987 0.0395878 345.676 0.0296312 355.267C0.0196741 364.859 6.65978 369.56 11.744 373.16L12.1442 373.444C17.2726 377.082 19.5818 378.937 19.5783 382.316C19.5901 382.546 19.5898 382.776 19.5775 383.006L29.7737 383.017L29.7744 382.327C29.7844 372.748 22.9615 367.909 17.8524 364.286L17.6598 364.15C12.5315 360.511 10.2223 358.656 10.2258 355.277C10.2293 351.899 12.5086 349.831 17.6782 346.421C22.8033 343.042 29.7016 338.199 29.8303 328.524C29.8314 328.439 29.8305 328.355 29.8306 328.269L29.831 327.834C29.841 318.255 23.018 313.416 17.909 309.793L17.7164 309.657C12.5881 306.018 10.2789 304.163 10.2824 300.784C10.2859 297.406 12.5651 295.338 17.7348 291.928C22.9045 288.519 29.8769 283.621 29.8871 273.776L19.6909 273.766C19.6874 277.181 17.4084 279.067 12.2385 282.622Z" fill="#FAAD1C"/>
<path d="M42.3509 -44.1635L41.9506 -43.8827C36.8588 -40.3091 30.2085 -35.6419 30.1986 -26.094C30.1887 -16.5457 36.8288 -11.8651 41.9131 -8.28177L42.3133 -7.99927C47.4417 -4.37751 49.7509 -2.5307 49.7474 0.832767C49.7549 0.977131 49.7575 1.12194 49.7552 1.26673L49.7469 1.26672C49.7434 4.66595 47.4644 6.5442 42.2946 10.0829L41.8943 10.3637C36.8025 13.9373 30.1522 18.6045 30.1423 28.1524C30.1324 37.7007 36.7725 42.3813 41.8567 45.9646L42.257 46.2471C47.3854 49.8689 49.6946 51.7157 49.6911 55.0792C49.7029 55.3079 49.7026 55.5374 49.6904 55.7661L59.8865 55.7767L59.8873 55.0898C59.8972 45.5543 53.0742 40.7375 47.9651 37.1312L47.7726 36.995C42.6442 33.3733 40.335 31.5265 40.3385 28.163C40.342 24.8 42.6212 22.7407 47.7909 19.3468C52.9159 15.9825 59.8142 11.1619 59.9429 1.53026C59.944 1.44638 59.943 1.36207 59.9431 1.27731L59.9436 0.843351C59.9535 -8.69215 53.1305 -13.5089 48.0214 -17.1152L47.8289 -17.2514C42.7005 -20.8731 40.3913 -22.7199 40.3948 -26.0834C40.3983 -29.4464 42.6775 -31.5057 47.8472 -34.8996C53.0168 -38.2934 59.9893 -43.1687 59.9994 -52.9691L49.8033 -52.9797C49.7997 -49.5804 47.5207 -47.7022 42.3509 -44.1635Z" fill="#FAAD1C"/>
<path d="M42.2385 64.6221L41.8383 64.9042C36.7464 68.4941 30.0962 73.1826 30.0862 82.7739C30.0762 92.3656 36.7163 97.0674 41.8005 100.667L42.2008 100.951C47.3292 104.589 49.6383 106.444 49.6348 109.823C49.6424 109.968 49.6449 110.113 49.6427 110.259L49.6344 110.259C49.6308 113.674 47.3518 115.56 42.182 119.115L41.7817 119.397C36.6899 122.987 30.0396 127.676 30.0296 137.267C30.0197 146.859 36.6598 151.56 41.744 155.16L42.1442 155.444C47.2726 159.082 49.5818 160.937 49.5783 164.316C49.5901 164.546 49.5898 164.776 49.5775 165.006L59.7737 165.017L59.7744 164.327C59.7844 154.748 52.9615 149.909 47.8524 146.286L47.6598 146.15C42.5315 142.511 40.2223 140.656 40.2258 137.277C40.2293 133.899 42.5086 131.831 47.6782 128.421C52.8033 125.042 59.7016 120.199 59.8303 110.524C59.8314 110.439 59.8305 110.355 59.8306 110.269L59.831 109.834C59.841 100.255 53.018 95.4161 47.909 91.7934L47.7164 91.6566C42.5881 88.0184 40.2789 86.1632 40.2824 82.7845C40.2859 79.4061 42.5651 77.3375 47.7348 73.9282C52.9045 70.5189 59.8769 65.6214 59.8871 55.7765L49.6909 55.7659C49.6874 59.1806 47.4084 61.0674 42.2385 64.6221Z" fill="#FAAD1C"/>
<path d="M42.3509 173.836L41.9506 174.117C36.8588 177.691 30.2085 182.358 30.1986 191.906C30.1887 201.454 36.8288 206.135 41.9131 209.718L42.3133 210.001C47.4417 213.622 49.7509 215.469 49.7474 218.833C49.7549 218.977 49.7575 219.122 49.7552 219.267L49.7469 219.267C49.7434 222.666 47.4644 224.544 42.2946 228.083L41.8943 228.364C36.8025 231.937 30.1522 236.605 30.1423 246.152C30.1324 255.701 36.7725 260.381 41.8567 263.965L42.257 264.247C47.3854 267.869 49.6946 269.716 49.6911 273.079C49.7029 273.308 49.7026 273.537 49.6904 273.766L59.8865 273.777L59.8873 273.09C59.8972 263.554 53.0742 258.737 47.9651 255.131L47.7726 254.995C42.6442 251.373 40.335 249.526 40.3385 246.163C40.342 242.8 42.6212 240.741 47.7909 237.347C52.9159 233.983 59.8142 229.162 59.9429 219.53C59.944 219.446 59.943 219.362 59.9431 219.277L59.9436 218.843C59.9535 209.308 53.1305 204.491 48.0214 200.885L47.8289 200.749C42.7005 197.127 40.3913 195.28 40.3948 191.917C40.3983 188.554 42.6775 186.494 47.8472 183.1C53.0168 179.707 59.9893 174.831 59.9994 165.031L49.8033 165.02C49.7997 168.42 47.5207 170.298 42.3509 173.836Z" fill="#FAAD1C"/>
<path d="M42.2385 282.622L41.8383 282.904C36.7464 286.494 30.0962 291.183 30.0862 300.774C30.0762 310.366 36.7163 315.067 41.8005 318.667L42.2008 318.951C47.3292 322.589 49.6383 324.444 49.6348 327.823C49.6424 327.968 49.6449 328.113 49.6427 328.259L49.6344 328.259C49.6308 331.674 47.3518 333.56 42.182 337.115L41.7817 337.397C36.6899 340.987 30.0396 345.676 30.0296 355.267C30.0197 364.859 36.6598 369.56 41.744 373.16L42.1442 373.444C47.2726 377.082 49.5818 378.937 49.5783 382.316C49.5901 382.546 49.5898 382.776 49.5775 383.006L59.7737 383.017L59.7744 382.327C59.7844 372.748 52.9615 367.909 47.8524 364.286L47.6598 364.15C42.5315 360.511 40.2223 358.656 40.2258 355.277C40.2293 351.899 42.5086 349.831 47.6782 346.421C52.8033 343.042 59.7016 338.199 59.8303 328.524C59.8314 328.439 59.8305 328.355 59.8306 328.269L59.831 327.834C59.841 318.255 53.018 313.416 47.909 309.793L47.7164 309.657C42.5881 306.018 40.2789 304.163 40.2824 300.784C40.2859 297.406 42.5651 295.338 47.7348 291.928C52.9045 288.519 59.8769 283.621 59.8871 273.776L49.6909 273.766C49.6874 277.181 47.4084 279.067 42.2385 282.622Z" fill="#FAAD1C"/>
</svg>
