<svg width="119" height="266" viewBox="0 0 119 266" fill="none" xmlns="http://www.w3.org/2000/svg">
<path d="M104.141 254.372L103.652 254.716C97.285 259.05 94.5383 261.351 94.5383 265.508L82.0541 265.508C82.0542 253.698 90.5851 247.55 96.9105 243.393C103.236 239.236 106.024 236.847 106.024 232.733C106.024 228.62 103.194 226.232 96.9107 221.809L96.6747 221.642C90.4147 217.238 82.0546 211.356 82.0548 199.694L82.0548 199.163C82.0548 199.06 82.0535 198.956 82.0548 198.854C82.2024 187.246 90.6411 181.169 96.9111 177.048C103.237 172.891 106.025 170.502 106.025 166.388C106.025 162.275 103.195 159.887 96.9113 155.464L96.6754 155.298C90.4153 150.894 82.0553 145.011 82.0554 133.349L82.0554 132.509L94.5395 132.509C94.5248 132.789 94.5248 133.069 94.5395 133.349C94.5395 137.463 97.3692 139.718 103.653 144.141L104.143 144.486C110.373 148.862 118.509 154.578 118.509 166.256C118.509 177.933 110.372 183.65 104.142 188.027L103.652 188.371C97.2856 192.706 94.5389 195.006 94.5389 199.163L94.5287 199.163C94.5262 199.34 94.5295 199.517 94.5389 199.694C94.5389 203.807 97.3685 206.063 103.652 210.486L104.143 210.831C110.372 215.207 118.508 220.923 118.508 232.601C118.508 244.278 110.371 249.995 104.141 254.372Z" fill="#FAAD1C"/>
<path d="M63.36 254.372L62.8703 254.716C56.5866 259.051 53.7568 261.351 53.7568 265.508L41.2727 265.508C41.2728 253.522 49.8036 247.551 56.129 243.393C62.4544 239.236 65.2425 236.714 65.2426 232.601C65.2426 228.488 62.4129 226.232 56.1292 221.809L55.8933 221.643C49.6332 217.239 41.2732 211.356 41.2733 199.694L41.2733 199.164L41.273 199.06C41.2728 198.991 41.2725 198.923 41.2733 198.854C41.4187 187.074 49.8589 181.17 56.1297 177.048C62.4551 172.891 65.2432 170.37 65.2432 166.257C65.2432 162.143 62.4136 159.887 56.1299 155.464L55.8939 155.298C49.6339 150.894 41.2738 145.012 41.2739 133.349L41.2739 132.509L53.7581 132.509C53.7533 132.599 53.7499 132.69 53.7484 132.781C53.7474 132.83 53.7472 132.88 53.7472 132.93C53.7472 133.07 53.7507 133.209 53.7581 133.349C53.758 137.463 56.5877 139.719 62.8714 144.142L63.3619 144.487C69.5914 148.863 77.7275 154.579 77.7273 166.256C77.7272 177.934 69.5906 183.65 63.3607 188.028L62.871 188.372C56.5872 192.706 53.7575 195.006 53.7574 199.163L53.7473 199.163C53.7447 199.341 53.748 199.518 53.7574 199.694C53.7574 203.808 56.5871 206.064 62.8708 210.486L63.3612 210.831C69.5908 215.207 77.7268 220.923 77.7267 232.601C77.7266 244.279 69.5899 249.995 63.36 254.372Z" fill="#FAAD1C"/>
<path d="M22.0889 254.717L22.5786 254.373C28.8085 249.996 36.9451 244.279 36.9452 232.602C36.9453 220.924 28.8093 215.208 22.5797 210.832L22.0893 210.487C15.8056 206.064 12.9759 203.808 12.976 199.695C12.9666 199.518 12.9633 199.341 12.9658 199.164L12.976 199.164C12.976 195.006 15.7641 192.706 22.0895 188.372L22.5792 188.028C28.8091 183.651 36.9458 177.934 36.9459 166.257C36.946 154.579 28.81 148.863 22.5804 144.487L22.0899 144.142C15.8063 139.719 12.9766 137.463 12.9766 133.35C12.9619 133.07 12.9619 132.789 12.9766 132.51L0.49248 132.51L0.492472 133.35C0.492355 145.012 8.85239 150.894 15.1125 155.298L15.3484 155.465C21.6321 159.888 24.4618 162.143 24.4617 166.257C24.4617 170.37 21.6736 172.891 15.3482 177.049C9.07739 181.17 0.637229 187.075 0.491834 198.855C0.490567 198.957 0.491834 199.06 0.491834 199.164L0.491826 199.695C0.491717 211.357 8.85175 217.239 15.1118 221.643L15.3478 221.809C21.6314 226.232 24.4611 228.488 24.4611 232.602C24.4611 236.715 21.673 239.236 15.3476 243.394C9.02214 247.551 0.491312 253.523 0.491196 265.509L12.9753 265.509C12.9754 261.351 15.7634 259.051 22.0889 254.717Z" fill="#FAAD1C"/>
<path d="M103.65 121.863L103.161 122.207C96.7938 126.542 94.0471 128.842 94.0471 132.999L81.5629 132.999C81.563 121.19 90.0939 115.042 96.4193 110.884C102.745 106.727 105.533 104.338 105.533 100.224C105.533 96.1114 102.703 93.7229 96.4195 89.2999L96.1835 89.1336C89.9235 84.7296 81.5634 78.8473 81.5636 67.1851L81.5636 66.6544C81.5636 66.5507 81.5623 66.4476 81.5636 66.345C81.7112 54.7374 90.1499 48.66 96.4199 44.5393C102.745 40.3819 105.533 37.9933 105.533 33.8797C105.533 29.7666 102.704 27.378 96.4201 22.9551L96.1842 22.7888C89.9241 18.3848 81.5641 12.5025 81.5642 0.840282L81.5642 0.000173493L94.0483 5.66391e-05C94.0336 0.279733 94.0336 0.560489 94.0483 0.840165C94.0483 4.95378 96.878 7.20952 103.162 11.6325L103.652 11.9775C109.882 16.3534 118.018 22.0694 118.018 33.7473C118.017 45.4246 109.881 51.1413 103.651 55.5184L103.161 55.8623C96.7944 60.1969 94.0477 62.4969 94.0477 66.6543L94.0375 66.6543C94.035 66.8314 94.0383 67.0085 94.0477 67.185C94.0476 71.2986 96.8773 73.5544 103.161 77.9773L103.651 78.3223C109.881 82.6983 118.017 88.4143 118.017 100.092C118.017 111.769 109.88 117.486 103.65 121.863Z" fill="#FAAD1C"/>
<path d="M62.8688 121.864L62.3791 122.208C56.0954 126.542 53.2656 128.842 53.2656 132.999L40.7814 133C40.7816 121.013 49.3124 115.042 55.6378 110.885C61.9632 106.727 64.7513 104.206 64.7514 100.093C64.7514 95.979 61.9217 93.7232 55.638 89.3003L55.4021 89.134C49.142 84.73 40.782 78.8477 40.7821 67.1855L40.7821 66.6548L40.7818 66.5511C40.7816 66.4825 40.7813 66.414 40.7821 66.3454C40.9275 54.5655 49.3676 48.6609 55.6385 44.5397C61.9639 40.3823 64.752 37.8608 64.752 33.7478C64.752 29.6341 61.9223 27.3784 55.6387 22.9555L55.4027 22.7892C49.1426 18.3851 40.7826 12.5028 40.7827 0.840664L40.7827 0.000555215L53.2669 0.000438361C53.262 0.0906043 53.2587 0.18131 53.2572 0.272016C53.2562 0.321688 53.2559 0.371361 53.2559 0.421033C53.2559 0.560871 53.2595 0.700709 53.2669 0.840547C53.2668 4.95416 56.0965 7.20991 62.3802 11.6328L62.8706 11.9778C69.1002 16.3538 77.2362 22.0698 77.2361 33.7476C77.236 45.4249 69.0994 51.1416 62.8695 55.5188L62.3798 55.8627C56.096 60.1972 53.2663 62.4973 53.2662 66.6547L53.2561 66.6547C53.2535 66.8317 53.2568 67.0088 53.2662 67.1854C53.2662 71.299 56.0959 73.5547 62.3795 77.9777L62.87 78.3227C69.0996 82.6986 77.2356 88.4146 77.2355 100.092C77.2354 111.77 69.0987 117.486 62.8688 121.864Z" fill="#FAAD1C"/>
<path d="M21.5977 122.208L22.0874 121.864C28.3173 117.487 36.4539 111.77 36.454 100.093C36.4541 88.415 28.3181 82.699 22.0885 78.3231L21.5981 77.9781C15.3144 73.5551 12.4847 71.2994 12.4848 67.1858C12.4754 67.0092 12.4721 66.8321 12.4746 66.655L12.4848 66.655C12.4848 62.4977 15.2729 60.1976 21.5983 55.8631L22.088 55.5192C28.3179 51.142 36.4546 45.4253 36.4547 33.748C36.4548 22.0702 28.3188 16.3542 22.0892 11.9782L21.5987 11.6332C15.315 7.21029 12.4854 4.95455 12.4854 0.840929C12.4707 0.561253 12.4707 0.280497 12.4854 0.000820083L0.0012653 0.000936937L0.00125719 0.841046C0.00114468 12.5032 8.36118 18.3855 14.6212 22.7896L14.8572 22.9559C21.1409 27.3788 23.9706 29.6345 23.9705 33.7481C23.9705 37.8612 21.1824 40.3827 14.857 44.5401C8.58618 48.6613 0.146021 54.5659 0.00062525 66.3458C-0.000645691 66.4484 0.000623266 66.5515 0.000622266 66.6551L0.000617146 67.1859C0.000504638 78.8481 8.36054 84.7304 14.6206 89.1344L14.8566 89.3007C21.1402 93.7236 23.9699 95.9794 23.9699 100.093C23.9698 104.206 21.1818 106.727 14.8564 110.885C8.53093 115.042 9.78534e-05 121.014 -1.77799e-05 133L12.4841 133C12.4842 128.843 15.2722 126.542 21.5977 122.208Z" fill="#FAAD1C"/>
</svg>
