<svg width="42" height="1331" viewBox="0 0 42 1331" fill="none" xmlns="http://www.w3.org/2000/svg">
<path d="M19.7935 676.184L19.3038 676.528C13.0738 680.905 4.9372 686.621 4.93709 698.299C4.93697 709.977 13.073 715.693 19.3026 720.069L19.793 720.414C26.0767 724.836 28.9064 727.092 28.9064 731.206C28.9157 731.382 28.9191 731.559 28.9165 731.737L28.9063 731.737C28.9063 735.894 26.1182 738.194 19.7928 742.528L19.3031 742.872C13.0732 747.25 4.93656 752.966 4.93645 764.644C4.93634 776.321 13.0724 782.037 19.3019 786.413L19.7924 786.758C26.0761 791.181 28.9058 793.278 28.9057 797.392C28.9204 797.671 28.9204 798.111 28.9057 798.391L41.3898 798.391L41.3899 797.551C41.39 785.888 33.0299 780.006 26.7699 775.602L26.5339 775.436C20.2502 771.013 17.4206 768.757 17.4206 764.643C17.4206 760.53 20.2087 758.009 26.5341 753.852C32.8049 749.73 41.2451 743.826 41.3905 732.046C41.3918 731.943 41.3905 731.84 41.3905 731.736L41.3905 731.206C41.3906 719.544 33.0306 713.661 26.7705 709.257L26.5345 709.091C20.2509 704.668 17.4212 702.412 17.4212 698.299C17.4213 694.186 20.2093 691.664 26.5348 687.507C32.8602 683.349 41.391 677.378 41.3911 665.392L28.907 665.392C28.9069 669.549 26.1189 671.849 19.7935 676.184Z" fill="#FAAD1C"/>
<path d="M19.7935 543.184L19.3038 543.528C13.0738 547.905 4.9372 553.621 4.93709 565.299C4.93697 576.977 13.073 582.693 19.3026 587.069L19.793 587.414C26.0767 591.836 28.9064 594.092 28.9064 598.206C28.9157 598.382 28.9191 598.559 28.9165 598.737L28.9063 598.737C28.9063 602.894 26.1182 605.194 19.7928 609.528L19.3031 609.872C13.0732 614.25 4.93656 619.966 4.93645 631.644C4.93634 643.321 13.0724 649.037 19.3019 653.413L19.7924 653.758C26.0761 658.181 28.9058 660.278 28.9057 664.392C28.9204 664.671 28.9204 665.111 28.9057 665.391L41.3898 665.391L41.3899 664.551C41.39 652.888 33.0299 647.006 26.7699 642.602L26.5339 642.436C20.2502 638.013 17.4206 635.757 17.4206 631.643C17.4206 627.53 20.2087 625.009 26.5341 620.852C32.8049 616.73 41.2451 610.826 41.3905 599.046C41.3918 598.943 41.3905 598.84 41.3905 598.736L41.3905 598.206C41.3906 586.544 33.0306 580.661 26.7705 576.257L26.5345 576.091C20.2509 571.668 17.4212 569.412 17.4212 565.299C17.4213 561.186 20.2093 558.664 26.5348 554.507C32.8602 550.349 41.391 544.378 41.3911 532.392L28.907 532.392C28.9069 536.549 26.1189 538.849 19.7935 543.184Z" fill="#FAAD1C"/>
<path d="M19.7935 410.184L19.3038 410.528C13.0738 414.905 4.9372 420.621 4.93709 432.299C4.93697 443.977 13.073 449.693 19.3026 454.069L19.793 454.414C26.0767 458.836 28.9064 461.092 28.9064 465.206C28.9157 465.382 28.9191 465.559 28.9165 465.737L28.9063 465.737C28.9063 469.894 26.1182 472.194 19.7928 476.528L19.3031 476.872C13.0732 481.25 4.93656 486.966 4.93645 498.644C4.93634 510.321 13.0724 516.037 19.3019 520.413L19.7924 520.758C26.0761 525.181 28.9058 527.278 28.9057 531.392C28.9204 531.671 28.9204 532.111 28.9057 532.391L41.3898 532.391L41.3899 531.551C41.39 519.888 33.0299 514.006 26.7699 509.602L26.5339 509.436C20.2502 505.013 17.4206 502.757 17.4206 498.643C17.4206 494.53 20.2087 492.009 26.5341 487.852C32.8049 483.73 41.2451 477.826 41.3905 466.046C41.3918 465.943 41.3905 465.84 41.3905 465.736L41.3905 465.206C41.3906 453.544 33.0306 447.661 26.7705 443.257L26.5345 443.091C20.2509 438.668 17.4212 436.412 17.4212 432.299C17.4213 428.186 20.2093 425.664 26.5348 421.507C32.8602 417.349 41.391 411.378 41.3911 399.392L28.907 399.392C28.9069 403.549 26.1189 405.849 19.7935 410.184Z" fill="#FAAD1C"/>
<path d="M19.7935 277.184L19.3038 277.528C13.0738 281.905 4.9372 287.621 4.93709 299.299C4.93697 310.977 13.073 316.693 19.3026 321.069L19.793 321.414C26.0767 325.836 28.9064 328.092 28.9064 332.206C28.9157 332.382 28.9191 332.559 28.9165 332.737L28.9063 332.737C28.9063 336.894 26.1182 339.194 19.7928 343.528L19.3031 343.872C13.0732 348.25 4.93656 353.966 4.93645 365.644C4.93634 377.321 13.0724 383.037 19.3019 387.413L19.7924 387.758C26.0761 392.181 28.9058 394.278 28.9057 398.392C28.9204 398.671 28.9204 399.111 28.9057 399.391L41.3898 399.391L41.3899 398.551C41.39 386.888 33.0299 381.006 26.7699 376.602L26.5339 376.436C20.2502 372.013 17.4206 369.757 17.4206 365.643C17.4206 361.53 20.2087 359.009 26.5341 354.852C32.8049 350.73 41.2451 344.826 41.3905 333.046C41.3918 332.943 41.3905 332.84 41.3905 332.736L41.3905 332.206C41.3906 320.544 33.0306 314.661 26.7705 310.257L26.5345 310.091C20.2509 305.668 17.4212 303.412 17.4212 299.299C17.4213 295.186 20.2093 292.664 26.5348 288.507C32.8602 284.349 41.391 278.378 41.3911 266.392L28.907 266.392C28.9069 270.549 26.1189 272.849 19.7935 277.184Z" fill="#FAAD1C"/>
<path d="M19.7935 144.184L19.3038 144.528C13.0738 148.905 4.9372 154.621 4.93709 166.299C4.93697 177.977 13.073 183.693 19.3026 188.069L19.793 188.414C26.0767 192.836 28.9064 195.092 28.9064 199.206C28.9157 199.382 28.9191 199.559 28.9165 199.737L28.9063 199.737C28.9063 203.894 26.1182 206.194 19.7928 210.528L19.3031 210.872C13.0732 215.25 4.93656 220.966 4.93645 232.644C4.93634 244.321 13.0724 250.037 19.3019 254.413L19.7924 254.758C26.0761 259.181 28.9058 261.278 28.9057 265.392C28.9204 265.671 28.9204 266.111 28.9057 266.391L41.3898 266.391L41.3899 265.551C41.39 253.888 33.0299 248.006 26.7699 243.602L26.5339 243.436C20.2502 239.013 17.4206 236.757 17.4206 232.643C17.4206 228.53 20.2087 226.009 26.5341 221.852C32.8049 217.73 41.2451 211.826 41.3905 200.046C41.3918 199.943 41.3905 199.84 41.3905 199.736L41.3905 199.206C41.3906 187.544 33.0306 181.661 26.7705 177.257L26.5345 177.091C20.2509 172.668 17.4212 170.412 17.4212 166.299C17.4213 162.186 20.2093 159.664 26.5348 155.507C32.8602 151.349 41.391 145.378 41.3911 133.392L28.907 133.392C28.9069 137.549 26.1189 139.849 19.7935 144.184Z" fill="#FAAD1C"/>
<path d="M19.7935 11.1836L19.3038 11.5276C13.0738 15.9047 4.9372 21.6214 4.93709 33.2987C4.93697 44.9766 13.073 50.6926 19.3026 55.0685L19.793 55.4135C26.0767 59.8365 28.9064 62.0922 28.9064 66.2058C28.9157 66.3824 28.9191 66.5595 28.9165 66.7366L28.9063 66.7366C28.9063 70.8939 26.1182 73.194 19.7928 77.5285L19.3031 77.8724C13.0732 82.2496 4.93656 87.9663 4.93645 99.6436C4.93634 111.321 13.0724 117.037 19.3019 121.413L19.7924 121.758C26.0761 126.181 28.9058 128.278 28.9057 132.392C28.9204 132.671 28.9204 133.111 28.9057 133.391L41.3898 133.391L41.3899 132.551C41.39 120.888 33.0299 115.006 26.7699 110.602L26.5339 110.436C20.2502 106.013 17.4206 103.757 17.4206 99.6435C17.4206 95.5304 20.2087 93.0089 26.5341 88.8515C32.8049 84.7303 41.2451 78.8257 41.3905 67.0458C41.3918 66.9432 41.3905 66.8401 41.3905 66.7364L41.3905 66.2057C41.3906 54.5435 33.0306 48.6612 26.7705 44.2572L26.5345 44.0909C20.2509 39.668 17.4212 37.4122 17.4212 33.2986C17.4213 29.1855 20.2093 26.6641 26.5348 22.5067C32.8602 18.3493 41.391 12.3777 41.3911 0.391602L28.907 0.39172C28.9069 4.54907 26.1189 6.84914 19.7935 11.1836Z" fill="#FAAD1C"/>
<path d="M19.7935 809.184L19.3038 809.528C13.0738 813.905 4.9372 819.621 4.93709 831.299C4.93697 842.977 13.073 848.693 19.3026 853.069L19.793 853.414C26.0767 857.836 28.9064 860.092 28.9064 864.206C28.9157 864.382 28.9191 864.559 28.9165 864.737L28.9063 864.737C28.9063 868.894 26.1182 871.194 19.7928 875.528L19.3031 875.872C13.0732 880.25 4.93656 885.966 4.93645 897.644C4.93634 909.321 13.0724 915.037 19.3019 919.413L19.7924 919.758C26.0761 924.181 28.9058 926.278 28.9057 930.392C28.9204 930.671 28.9204 931.111 28.9057 931.391L41.3898 931.391L41.3899 930.551C41.39 918.888 33.0299 913.006 26.7699 908.602L26.5339 908.436C20.2502 904.013 17.4206 901.757 17.4206 897.643C17.4206 893.53 20.2087 891.009 26.5341 886.852C32.8049 882.73 41.2451 876.826 41.3905 865.046C41.3918 864.943 41.3905 864.84 41.3905 864.736L41.3905 864.206C41.3906 852.544 33.0306 846.661 26.7705 842.257L26.5345 842.091C20.2509 837.668 17.4212 835.412 17.4212 831.299C17.4213 827.186 20.2093 824.664 26.5348 820.507C32.8602 816.349 41.391 810.378 41.3911 798.392L28.907 798.392C28.9069 802.549 26.1189 804.849 19.7935 809.184Z" fill="#FAAD1C"/>
<path d="M19.7935 942.184L19.3038 942.528C13.0738 946.905 4.9372 952.621 4.93709 964.299C4.93697 975.977 13.073 981.693 19.3026 986.069L19.793 986.414C26.0767 990.836 28.9064 993.092 28.9064 997.206C28.9157 997.382 28.9191 997.559 28.9165 997.737L28.9063 997.737C28.9063 1001.89 26.1182 1004.19 19.7928 1008.53L19.3031 1008.87C13.0732 1013.25 4.93656 1018.97 4.93645 1030.64C4.93634 1042.32 13.0724 1048.04 19.3019 1052.41L19.7924 1052.76C26.0761 1057.18 28.9058 1059.28 28.9057 1063.39C28.9204 1063.67 28.9204 1064.11 28.9057 1064.39L41.3898 1064.39L41.3899 1063.55C41.39 1051.89 33.0299 1046.01 26.7699 1041.6L26.5339 1041.44C20.2502 1037.01 17.4206 1034.76 17.4206 1030.64C17.4206 1026.53 20.2087 1024.01 26.5341 1019.85C32.8049 1015.73 41.2451 1009.83 41.3905 998.046C41.3918 997.943 41.3905 997.84 41.3905 997.736L41.3905 997.206C41.3906 985.544 33.0306 979.661 26.7705 975.257L26.5345 975.091C20.2509 970.668 17.4212 968.412 17.4212 964.299C17.4213 960.186 20.2093 957.664 26.5348 953.507C32.8602 949.349 41.391 943.378 41.3911 931.392L28.907 931.392C28.9069 935.549 26.1189 937.849 19.7935 942.184Z" fill="#FAAD1C"/>
<path d="M19.7935 1075.18L19.3038 1075.53C13.0738 1079.9 4.9372 1085.62 4.93709 1097.3C4.93697 1108.98 13.073 1114.69 19.3026 1119.07L19.793 1119.41C26.0767 1123.84 28.9064 1126.09 28.9064 1130.21C28.9157 1130.38 28.9191 1130.56 28.9165 1130.74L28.9063 1130.74C28.9063 1134.89 26.1182 1137.19 19.7928 1141.53L19.3031 1141.87C13.0732 1146.25 4.93656 1151.97 4.93645 1163.64C4.93634 1175.32 13.0724 1181.04 19.3019 1185.41L19.7924 1185.76C26.0761 1190.18 28.9058 1192.28 28.9057 1196.39C28.9204 1196.67 28.9204 1197.11 28.9057 1197.39L41.3898 1197.39L41.3899 1196.55C41.39 1184.89 33.0299 1179.01 26.7699 1174.6L26.5339 1174.44C20.2502 1170.01 17.4206 1167.76 17.4206 1163.64C17.4206 1159.53 20.2087 1157.01 26.5341 1152.85C32.8049 1148.73 41.2451 1142.83 41.3905 1131.05C41.3918 1130.94 41.3905 1130.84 41.3905 1130.74L41.3905 1130.21C41.3906 1118.54 33.0306 1112.66 26.7705 1108.26L26.5345 1108.09C20.2509 1103.67 17.4212 1101.41 17.4212 1097.3C17.4213 1093.19 20.2093 1090.66 26.5348 1086.51C32.8602 1082.35 41.391 1076.38 41.3911 1064.39L28.907 1064.39C28.9069 1068.55 26.1189 1070.85 19.7935 1075.18Z" fill="#FAAD1C"/>
<path d="M19.7935 1208.18L19.3038 1208.53C13.0738 1212.9 4.9372 1218.62 4.93709 1230.3C4.93697 1241.98 13.073 1247.69 19.3026 1252.07L19.793 1252.41C26.0767 1256.84 28.9064 1259.09 28.9064 1263.21C28.9157 1263.38 28.9191 1263.56 28.9165 1263.74L28.9063 1263.74C28.9063 1267.89 26.1182 1270.19 19.7928 1274.53L19.3031 1274.87C13.0732 1279.25 4.93656 1284.97 4.93645 1296.64C4.93634 1308.32 13.0724 1314.04 19.3019 1318.41L19.7924 1318.76C26.0761 1323.18 28.9058 1325.28 28.9057 1329.39C28.9204 1329.67 28.9204 1330.11 28.9057 1330.39L41.3898 1330.39L41.3899 1329.55C41.39 1317.89 33.0299 1312.01 26.7699 1307.6L26.5339 1307.44C20.2502 1303.01 17.4206 1300.76 17.4206 1296.64C17.4206 1292.53 20.2087 1290.01 26.5341 1285.85C32.8049 1281.73 41.2451 1275.83 41.3905 1264.05C41.3918 1263.94 41.3905 1263.84 41.3905 1263.74L41.3905 1263.21C41.3906 1251.54 33.0306 1245.66 26.7705 1241.26L26.5345 1241.09C20.2509 1236.67 17.4212 1234.41 17.4212 1230.3C17.4213 1226.19 20.2093 1223.66 26.5348 1219.51C32.8602 1215.35 41.391 1209.38 41.3911 1197.39L28.907 1197.39C28.9069 1201.55 26.1189 1203.85 19.7935 1208.18Z" fill="#FAAD1C"/>
</svg>
