<svg width="11" height="412" viewBox="0 0 11 412" fill="none" xmlns="http://www.w3.org/2000/svg">
<path fill-rule="evenodd" clip-rule="evenodd" d="M6.1762 222.361L6.03927 222.457C4.27057 223.672 3.49097 224.317 3.49097 225.482L0.000149317 225.482C0.000149464 222.123 2.38553 220.449 4.15423 219.284C5.92294 218.118 6.70253 217.412 6.70253 216.259C6.70253 215.106 5.91129 214.474 4.15423 213.234L4.08825 213.187C2.3378 211.953 0.00014998 210.304 0.000150123 207.036L0.00015013 206.887C0.00015013 206.877 0.000111984 206.868 7.38372e-05 206.858C-6.27062e-06 206.839 -8.63784e-05 206.819 0.000150134 206.8C0.0407768 203.499 2.4008 201.844 4.15423 200.689C5.92294 199.524 6.70253 198.817 6.70253 197.664C6.70253 196.511 5.91129 195.879 4.15423 194.639L4.08825 194.593C2.3378 193.358 0.000154608 191.71 0.000154751 188.441L0.000154761 188.205L3.49097 188.205C3.48685 188.284 3.48685 188.363 3.49097 188.441C3.49097 189.594 4.28221 190.226 6.03927 191.466L6.17641 191.562C7.91834 192.789 10.1933 194.391 10.1933 197.664C10.1933 200.937 7.91824 202.539 6.17625 203.766L6.1762 203.766L6.03927 203.862C4.27057 205.077 3.49097 205.722 3.49097 206.887L3.48813 206.887C3.48742 206.937 3.48834 206.986 3.49097 207.036C3.49097 208.189 4.28221 208.821 6.03927 210.061L6.17641 210.157C7.91834 211.384 10.1933 212.986 10.1933 216.259C10.1933 219.532 7.91824 221.134 6.17625 222.361L6.1762 222.361ZM6.1762 184.809L6.03927 184.905C4.27056 186.12 3.49097 186.765 3.49097 187.93L0.000150958 187.93C0.000151105 184.571 2.38553 182.897 4.15423 181.732C5.92294 180.566 6.70253 179.86 6.70253 178.707C6.70253 177.554 5.91129 176.922 4.15423 175.682L4.08825 175.636C2.3378 174.401 0.000151622 172.753 0.000151765 169.484L0.000151771 169.335C0.000151772 169.316 -4.6296e-06 169.297 -4.62877e-06 169.277C-4.62834e-06 169.268 3.35191e-05 169.258 0.000151775 169.248C0.0407746 165.947 2.4008 164.292 4.15423 163.137C5.92294 161.972 6.70253 161.265 6.70253 160.112C6.70253 158.959 5.91129 158.327 4.15423 157.087L4.08825 157.041C2.3378 155.806 0.000152435 154.158 0.000152578 150.889L0.000152588 150.654L3.49097 150.654C3.48685 150.732 3.48685 150.811 3.49097 150.889C3.49097 152.042 4.28221 152.674 6.03927 153.914L6.17641 154.011C7.91834 155.237 10.1933 156.839 10.1933 160.112C10.1933 163.385 7.91824 164.987 6.17625 166.214L6.1762 166.214L6.03927 166.31C4.27057 167.525 3.49097 168.17 3.49097 169.335L3.48813 169.335C3.48742 169.385 3.48834 169.434 3.49097 169.484C3.49097 170.637 4.28221 171.269 6.03927 172.509L6.17641 172.605C7.91834 173.832 10.1933 175.434 10.1933 178.707C10.1933 181.98 7.91824 183.582 6.17625 184.809L6.1762 184.809Z" fill="#FAAD1C"/>
<path fill-rule="evenodd" clip-rule="evenodd" d="M6.1762 146.706L6.03927 146.803C4.27057 148.017 3.49097 148.662 3.49097 149.827L0.000149317 149.827C0.000149464 146.468 2.38553 144.794 4.15423 143.629C5.92294 142.464 6.70253 141.757 6.70253 140.604C6.70253 139.451 5.91129 138.819 4.15423 137.58L4.08825 137.533C2.3378 136.299 0.00014998 134.65 0.000150123 131.381L0.00015013 131.233C0.00015013 131.223 0.000111984 131.213 7.38372e-05 131.204C-6.27062e-06 131.184 -8.63784e-05 131.165 0.000150134 131.146C0.0407768 127.844 2.4008 126.189 4.15423 125.034C5.92294 123.869 6.70253 123.162 6.70253 122.01C6.70253 120.857 5.91129 120.224 4.15423 118.985L4.08825 118.938C2.3378 117.704 0.000154608 116.055 0.000154751 112.787L0.000154761 112.551L3.49097 112.551C3.48685 112.63 3.48685 112.708 3.49097 112.787C3.49097 113.94 4.28221 114.572 6.03927 115.811L6.17641 115.908C7.91834 117.135 10.1933 118.737 10.1933 122.01C10.1933 125.282 7.91824 126.885 6.17625 128.111L6.1762 128.111L6.03927 128.208C4.27057 129.423 3.49097 130.067 3.49097 131.233L3.48813 131.233C3.48742 131.282 3.48834 131.332 3.49097 131.381C3.49097 132.534 4.28221 133.166 6.03927 134.406L6.17641 134.503C7.91834 135.729 10.1933 137.331 10.1933 140.604C10.1933 143.877 7.91824 145.479 6.17625 146.706L6.1762 146.706ZM6.1762 109.155L6.03927 109.251C4.27056 110.466 3.49097 111.11 3.49097 112.276L0.000150958 112.276C0.000151105 108.916 2.38553 107.243 4.15423 106.077C5.92294 104.912 6.70253 104.205 6.70253 103.053C6.70253 101.9 5.91129 101.267 4.15423 100.028L4.08825 99.9812C2.3378 98.7469 0.000151622 97.0982 0.000151765 93.8296L0.000151771 93.6808C0.000151772 93.6711 0.000113625 93.6614 7.54786e-05 93.6517C-4.62918e-06 93.6325 -8.4737e-05 93.6132 0.000151775 93.5941C0.0407746 90.2925 2.4008 88.6376 4.15423 87.4825C5.92294 86.3173 6.70253 85.6106 6.70253 84.4578C6.70253 83.3049 5.91129 82.6727 4.15423 81.433L4.08825 81.3864C2.3378 80.152 0.000152435 78.5033 0.000152578 75.2347L0.000152588 74.9993L3.49097 74.9993C3.48685 75.0777 3.48685 75.1563 3.49097 75.2347C3.49097 76.3877 4.28221 77.0199 6.03927 78.2596L6.17641 78.3563C7.91834 79.5827 10.1933 81.1848 10.1933 84.4578C10.1933 87.7307 7.91825 89.3329 6.17625 90.5597L6.1762 90.5597L6.03927 90.6561C4.27057 91.871 3.49097 92.5156 3.49097 93.6808L3.48813 93.6808C3.48742 93.7304 3.48834 93.7801 3.49097 93.8296C3.49097 94.9825 4.28221 95.6147 6.03927 96.8544L6.17641 96.9511C7.91834 98.1776 10.1933 99.7797 10.1933 103.053C10.1933 106.325 7.91825 107.928 6.17626 109.155L6.1762 109.155Z" fill="#FAAD1C"/>
<path fill-rule="evenodd" clip-rule="evenodd" d="M6.1762 71.7062L6.03927 71.8026C4.27057 73.0174 3.49097 73.6621 3.49097 74.8273L0.000149317 74.8273C0.000149464 71.4679 2.38553 69.7942 4.15423 68.629C5.92294 67.4638 6.70253 66.7571 6.70253 65.6044C6.70253 64.4514 5.91129 63.8192 4.15423 62.5795L4.08825 62.5329C2.3378 61.2986 0.00014998 59.6499 0.000150123 56.3813L0.00015013 56.2326C0.00015013 56.2229 0.000111984 56.2132 7.38372e-05 56.2035C-6.27062e-06 56.1842 -8.63784e-05 56.165 0.000150134 56.1458C0.0407768 52.8443 2.4008 51.1894 4.15423 50.0343C5.92294 48.8691 6.70253 48.1624 6.70253 47.0097C6.70253 45.8567 5.91129 45.2245 4.15423 43.9848L4.08825 43.9382C2.3378 42.7039 0.000154608 41.0552 0.000154751 37.7866L0.000154761 37.5511L3.49097 37.5511C3.48685 37.6295 3.48685 37.7082 3.49097 37.7866C3.49097 38.9395 4.28221 39.5718 6.03927 40.8114L6.17641 40.9081C7.91834 42.1346 10.1933 43.7367 10.1933 47.0097C10.1933 50.2825 7.91824 51.8847 6.17625 53.1115L6.1762 53.1115L6.03927 53.2079C4.27057 54.4227 3.49097 55.0674 3.49097 56.2326L3.48813 56.2326C3.48742 56.2822 3.48834 56.3318 3.49097 56.3813C3.49097 57.5342 4.28221 58.1665 6.03927 59.4061L6.17641 59.5028C7.91834 60.7293 10.1933 62.3314 10.1933 65.6044C10.1933 68.8772 7.91824 70.4794 6.17625 71.7062L6.1762 71.7062ZM6.1762 34.1545L6.03927 34.2509C4.27056 35.4658 3.49097 36.1104 3.49097 37.2756L0.000150958 37.2756C0.000151105 33.9162 2.38553 32.2426 4.15423 31.0774C5.92294 29.9121 6.70253 29.2055 6.70253 28.0527C6.70253 26.8997 5.91129 26.2675 4.15423 25.0278L4.08825 24.9812C2.3378 23.7469 0.000151622 22.0982 0.000151765 18.8296L0.000151771 18.6808C0.000151772 18.6711 0.000113625 18.6614 7.54786e-05 18.6517C-4.62918e-06 18.6325 -8.4737e-05 18.6132 0.000151775 18.5941C0.0407746 15.2925 2.4008 13.6376 4.15423 12.4825C5.92294 11.3173 6.70253 10.6106 6.70253 9.45784C6.70253 8.30489 5.91129 7.67266 4.15423 6.43301L4.08825 6.38639C2.3378 5.15204 0.000152435 3.50335 0.000152578 0.234726L0.000152588 -0.000732422L3.49097 -0.000732117C3.48685 0.0776523 3.48685 0.156342 3.49097 0.234726C3.49097 1.38767 4.28221 2.01991 6.03927 3.25957L6.17641 3.35626C7.91834 4.58275 10.1933 6.18483 10.1933 9.45784C10.1933 12.7307 7.91825 14.3329 6.17625 15.5597L6.1762 15.5597L6.03927 15.6561C4.27057 16.871 3.49097 17.5156 3.49097 18.6808L3.48813 18.6808C3.48742 18.7304 3.48834 18.7801 3.49097 18.8296C3.49097 19.9825 4.28221 20.6147 6.03927 21.8544L6.17641 21.9511C7.91834 23.1776 10.1933 24.7797 10.1933 28.0527C10.1933 31.3255 7.91825 32.9277 6.17626 34.1545L6.1762 34.1545Z" fill="#FAAD1C"/>
<path fill-rule="evenodd" clip-rule="evenodd" d="M6.1762 297.464L6.03927 297.561C4.27057 298.775 3.49097 299.42 3.49097 300.585L0.000149317 300.585C0.000149464 297.226 2.38553 295.552 4.15423 294.387C5.92294 293.222 6.70253 292.515 6.70253 291.362C6.70253 290.209 5.91129 289.577 4.15423 288.338L4.08825 288.291C2.3378 287.057 0.00014998 285.408 0.000150123 282.139L0.00015013 281.991C0.00015013 281.981 0.000111984 281.971 7.38372e-05 281.962C-6.27062e-06 281.942 -8.63784e-05 281.923 0.000150134 281.904C0.0407768 278.602 2.4008 276.947 4.15423 275.792C5.92294 274.627 6.70253 273.921 6.70253 272.768C6.70253 271.615 5.91129 270.983 4.15423 269.743L4.08825 269.696C2.3378 268.462 0.000154608 266.813 0.000154751 263.545L0.000154761 263.309L3.49097 263.309C3.48685 263.388 3.48685 263.466 3.49097 263.545C3.49097 264.698 4.28221 265.33 6.03927 266.569L6.17641 266.666C7.91834 267.893 10.1933 269.495 10.1933 272.768C10.1933 276.041 7.91824 277.643 6.17625 278.87L6.1762 278.87L6.03927 278.966C4.27057 280.181 3.49097 280.825 3.49097 281.991L3.48813 281.991C3.48742 282.04 3.48834 282.09 3.49097 282.139C3.49097 283.292 4.28221 283.925 6.03927 285.164L6.17641 285.261C7.91834 286.487 10.1933 288.089 10.1933 291.362C10.1933 294.635 7.91824 296.237 6.17625 297.464L6.1762 297.464ZM6.1762 259.913L6.03927 260.009C4.27056 261.224 3.49097 261.868 3.49097 263.034L0.000150958 263.034C0.000151105 259.674 2.38553 258.001 4.15423 256.835C5.92294 255.67 6.70253 254.964 6.70253 253.811C6.70253 252.658 5.91129 252.026 4.15423 250.786L4.08825 250.739C2.3378 249.505 0.000151622 247.856 0.000151765 244.588L0.000151771 244.439C0.000151772 244.429 0.000113625 244.419 7.54786e-05 244.41C-4.62918e-06 244.391 -8.4737e-05 244.371 0.000151775 244.352C0.0407746 241.051 2.4008 239.396 4.15423 238.241C5.92294 237.075 6.70253 236.369 6.70253 235.216C6.70253 234.063 5.91129 233.431 4.15423 232.191L4.08825 232.144C2.3378 230.91 0.000152435 229.261 0.000152578 225.993L0.000152588 225.757L3.49097 225.757C3.48685 225.836 3.48685 225.914 3.49097 225.993C3.49097 227.146 4.28221 227.778 6.03927 229.018L6.17641 229.114C7.91834 230.341 10.1933 231.943 10.1933 235.216C10.1933 238.489 7.91825 240.091 6.17625 241.318L6.1762 241.318L6.03927 241.414C4.27057 242.629 3.49097 243.274 3.49097 244.439L3.48813 244.439C3.48742 244.488 3.48834 244.538 3.49097 244.588C3.49097 245.741 4.28221 246.373 6.03927 247.612L6.17641 247.709C7.91834 248.936 10.1933 250.538 10.1933 253.811C10.1933 257.084 7.91825 258.686 6.17626 259.913L6.1762 259.913Z" fill="#FAAD1C"/>
<path fill-rule="evenodd" clip-rule="evenodd" d="M6.03926 408.523L6.17618 408.426L6.17624 408.426C7.91823 407.2 10.1933 405.597 10.1933 402.325C10.1933 399.052 7.91833 397.45 6.1764 396.223L6.03926 396.126C4.2822 394.887 3.49096 394.254 3.49096 393.102C3.48833 393.052 3.48741 393.002 3.48812 392.953L3.49096 392.953C3.49096 391.788 4.27056 391.143 6.03926 389.928L6.17619 389.832L6.17624 389.832C7.91823 388.605 10.1933 387.003 10.1933 383.73C10.1933 380.457 7.91833 378.855 6.1764 377.628L6.03926 377.532C4.2822 376.292 3.49096 375.66 3.49096 374.507C3.49024 374.493 3.48965 374.479 3.48918 374.466L3.49097 374.466C3.49097 373.3 4.27056 372.656 6.03927 371.441L6.17619 371.345L6.17625 371.345C7.91824 370.118 10.1933 368.516 10.1933 365.243C10.1933 361.97 7.91834 360.368 6.17641 359.141L6.03927 359.045C4.28221 357.805 3.49097 357.173 3.49097 356.02C3.48834 355.97 3.48741 355.921 3.48813 355.871L3.49097 355.871C3.49097 354.706 4.27056 354.061 6.03927 352.846L6.17619 352.75L6.17626 352.75C7.91825 351.523 10.1933 349.921 10.1933 346.648C10.1933 343.375 7.91834 341.773 6.17641 340.547L6.03927 340.45C4.28221 339.21 3.49097 338.578 3.49097 337.425C3.48685 337.347 3.48685 337.268 3.49097 337.19L0.000150946 337.19L0.000150936 337.425C0.000150793 340.694 2.3378 342.342 4.08825 343.577L4.15423 343.623C5.91129 344.863 6.70253 345.495 6.70253 346.648C6.70253 347.801 5.92294 348.508 4.15423 349.673C2.4008 350.828 0.040773 352.483 0.000150134 355.784C-8.63784e-05 355.803 -6.27061e-06 355.823 7.38372e-05 355.842C0.000111984 355.852 0.00015013 355.861 0.00015013 355.871L0.000150123 356.02C0.00014998 359.288 2.3378 360.937 4.08825 362.171L4.15423 362.218C5.91129 363.458 6.70253 364.09 6.70253 365.243C6.70253 366.396 5.92293 367.102 4.15423 368.267C2.41997 369.41 0.0928085 371.041 0.00283869 374.271L0.000141696 374.271L0.000141686 374.507C0.000141543 377.775 2.33779 379.424 4.08825 380.658L4.15422 380.705C5.91128 381.945 6.70252 382.577 6.70252 383.73C6.70252 384.883 5.92293 385.589 4.15422 386.755C2.40079 387.91 0.0407676 389.564 0.000140883 392.866C-9.56287e-05 392.885 -1.55209e-05 392.904 6.45869e-05 392.924C0.000102733 392.933 0.00014088 392.943 0.00014088 392.953L0.000140873 393.102C0.000144545 396.37 2.33779 398.019 4.08824 399.253L4.15422 399.3C5.91128 400.539 6.70252 401.172 6.70252 402.325C6.70252 403.477 5.92293 404.184 4.15422 405.349C2.38552 406.514 0.000140214 408.188 0.000140067 411.547L3.49096 411.547C3.49096 410.382 4.27055 409.738 6.03926 408.523ZM6.1762 333.793L6.03927 333.889C4.27057 335.104 3.49097 335.749 3.49097 336.914L0.000150958 336.914C0.000151105 333.555 2.38553 331.881 4.15423 330.716C5.92294 329.551 6.70253 328.844 6.70253 327.691C6.70253 326.538 5.91129 325.906 4.15423 324.666L4.08826 324.62C2.3378 323.385 0.000151622 321.737 0.000155579 318.468L0.000155586 318.319C0.000155587 318.302 3.35172e-05 318.285 3.00034e-06 318.268C-1.60726e-05 318.256 1.06308e-05 318.244 0.00015559 318.233C0.0407784 314.931 2.4008 313.276 4.15424 312.121C5.92294 310.956 6.70254 310.249 6.70254 309.096C6.70254 307.943 5.91129 307.311 4.15424 306.072L4.08826 306.025C2.3378 304.791 0.000156249 303.142 0.000156392 299.873L0.000156403 299.638L3.49097 299.638C3.48685 299.716 3.48685 299.795 3.49097 299.873C3.49097 301.026 4.28222 301.658 6.03927 302.898L6.17641 302.995C7.91834 304.221 10.1933 305.823 10.1933 309.096C10.1933 312.369 7.9182 313.971 6.1762 315.198L6.03927 315.295C4.27057 316.51 3.49097 317.154 3.49097 318.319L3.48813 318.319C3.48742 318.369 3.48834 318.419 3.49097 318.468C3.49097 319.621 4.28221 320.253 6.03927 321.493L6.17641 321.59C7.91834 322.816 10.1933 324.418 10.1933 327.691C10.1933 330.964 7.9182 332.566 6.1762 333.793Z" fill="#FAAD1C"/>
</svg>
