<svg width="34" height="38" viewBox="0 0 34 38" fill="none" xmlns="http://www.w3.org/2000/svg">
<path d="M29.0172 34.1154L28.8801 34.2117C27.0978 35.4251 26.3288 36.069 26.3288 37.2329L22.8339 37.2329C22.834 33.9268 25.2221 32.2057 26.9929 31.0418C28.7637 29.878 29.5442 29.2093 29.5442 28.0577C29.5443 26.9062 28.7521 26.2376 26.993 24.9994L26.9269 24.9528C25.1744 23.7199 22.8341 22.0732 22.8341 18.8084L22.8341 18.6598C22.8341 18.6308 22.8337 18.6019 22.8341 18.5732C22.8754 15.3236 25.2378 13.6223 26.9931 12.4687C28.7639 11.3049 29.5444 10.6362 29.5444 9.48458C29.5444 8.33313 28.7523 7.66446 26.9932 6.42627L26.9271 6.37972C25.1746 5.14682 22.8342 3.50008 22.8343 0.23528L22.8343 9.25994e-05L26.3292 5.95809e-05C26.3251 0.0783544 26.3251 0.156952 26.3292 0.235247C26.3292 1.38685 27.1213 2.01833 28.8804 3.25652L29.0177 3.35311C30.7617 4.57815 33.0394 6.17833 33.0393 9.44752C33.0393 12.7165 30.7615 14.3169 29.0174 15.5423L28.8803 15.6386C27.0979 16.852 26.329 17.4959 26.329 18.6598L26.3262 18.6598C26.3255 18.7093 26.3264 18.7589 26.329 18.8083C26.329 19.9599 27.1212 20.5914 28.8803 21.8296L29.0176 21.9262C30.7615 23.1512 33.0392 24.7514 33.0392 28.0206C33.0391 31.2896 30.7613 32.89 29.0172 34.1154Z" fill="#FAAD1C"/>
<path d="M17.6006 34.1155L17.4635 34.2118C15.7043 35.4252 14.9122 36.0691 14.9121 37.233L11.4172 37.233C11.4173 33.8775 13.8055 32.2058 15.5762 31.0419C17.347 29.8781 18.1276 29.1722 18.1276 28.0207C18.1276 26.8691 17.3354 26.2377 15.5763 24.9995L15.5103 24.9529C13.7578 23.72 11.4174 22.0733 11.4174 18.8085L11.4174 18.6599L11.4173 18.6309C11.4173 18.6117 11.4172 18.5925 11.4174 18.5733C11.4581 15.2755 13.8209 13.6226 15.5764 12.4688C17.3472 11.305 18.1277 10.5991 18.1277 9.44766C18.1278 8.29606 17.3356 7.66457 15.5765 6.42638L15.5104 6.37983C13.7579 5.14693 11.4176 3.50019 11.4176 0.235388L11.4176 0.00020046L14.9125 0.000167441C14.9112 0.0254092 14.9102 0.0508015 14.9098 0.0761944C14.9095 0.0901 14.9094 0.104006 14.9094 0.117912C14.9094 0.157059 14.9104 0.196208 14.9125 0.235355C14.9125 1.38695 15.7047 2.01844 17.4638 3.25663L17.6011 3.35322C19.345 4.57825 21.6227 6.17844 21.6226 9.44762C21.6226 12.7167 19.3448 14.317 17.6007 15.5424L17.4636 15.6387C15.7045 16.8521 14.9123 17.496 14.9123 18.6599L14.9095 18.6599C14.9088 18.7094 14.9097 18.759 14.9123 18.8084C14.9123 19.96 15.7045 20.5915 17.4636 21.8297L17.6009 21.9263C19.3448 23.1513 21.6225 24.7515 21.6225 28.0207C21.6224 31.2897 19.3446 32.8901 17.6006 34.1155Z" fill="#FAAD1C"/>
<path d="M6.04678 34.2119L6.18387 34.1156C7.92792 32.8902 10.2058 31.2899 10.2058 28.0208C10.2058 24.7516 7.92816 23.1515 6.1842 21.9264L6.0469 21.8298C4.2878 20.5916 3.49563 19.9602 3.49564 18.8086C3.49301 18.7591 3.49209 18.7096 3.4928 18.66L3.49564 18.66C3.49565 17.4961 4.27617 16.8522 6.04696 15.6388L6.18405 15.5425C7.9281 14.3171 10.2059 12.7168 10.206 9.44773C10.206 6.17855 7.92833 4.57836 6.18438 3.35332L6.04708 3.25674C4.28797 2.01855 3.49581 1.38706 3.49582 0.235463C3.4917 0.157168 3.4917 0.0785701 3.49582 0.000275301L0.0009167 0.00030832L0.000914451 0.235496C0.000883241 3.5003 2.34126 5.14703 4.09375 6.37993L4.1598 6.42649C5.9189 7.66467 6.71107 8.29617 6.71106 9.44776C6.71105 10.5992 5.93053 11.3051 4.15974 12.4689C2.40425 13.6227 0.0414422 15.2756 0.000739144 18.5734C0.000383349 18.6021 0.000738594 18.631 0.000738316 18.66L0.000736896 18.8086C0.000705685 22.0734 2.34108 23.7201 4.09357 24.953L4.15962 24.9996C5.91873 26.2378 6.71089 26.8693 6.71088 28.0209C6.71087 29.1723 5.93035 29.8782 4.15957 31.042C2.38878 32.2059 0.000592838 33.8776 0.00056076 37.2331L3.49547 37.2331C3.49548 36.0692 4.27599 35.4253 6.04678 34.2119Z" fill="#FAAD1C"/>
</svg>
