<svg width="210" height="36" viewBox="0 0 210 36" fill="none" xmlns="http://www.w3.org/2000/svg">
<path fill-rule="evenodd" clip-rule="evenodd" d="M137.07 28.5684L137.16 28.7142C138.301 30.5979 138.906 31.4282 140 31.4282V35.1461C136.846 35.1461 135.274 32.6056 134.18 30.7218C133.086 28.8381 132.423 28.0078 131.34 28.0078C130.258 28.0078 129.664 28.8505 128.5 30.7218L128.456 30.7921C127.297 32.6564 125.749 35.1461 122.68 35.1461H122.541C122.532 35.1461 122.523 35.1461 122.513 35.1462C122.495 35.1462 122.477 35.1463 122.459 35.1461C119.359 35.1028 117.805 32.5893 116.721 30.7218C115.627 28.8381 114.963 28.0078 113.881 28.0078C112.798 28.0078 112.205 28.8505 111.041 30.7218L110.997 30.7921C109.838 32.6564 108.29 35.1461 105.221 35.1461H105C101.846 35.1461 100.274 32.6056 99.1802 30.7218C98.0862 28.8381 97.4227 28.0078 96.3403 28.0078C95.2577 28.0078 94.6641 28.8505 93.5001 30.7218L93.4564 30.7921C92.2974 32.6564 90.7494 35.1461 87.6804 35.1461H87.5407C87.5316 35.1461 87.5225 35.1461 87.5134 35.1462C87.4953 35.1462 87.4773 35.1463 87.4593 35.1461C84.3593 35.1028 82.8055 32.5893 81.7209 30.7218C80.6269 28.8381 79.9634 28.0078 78.881 28.0078C77.7984 28.0078 77.2048 28.8505 76.0408 30.7218L75.9971 30.7921C74.8381 32.6564 73.2901 35.1461 70.2211 35.1461H70L70 31.4282C70.0736 31.4326 70.1475 31.4326 70.2211 31.4282C71.3036 31.4282 71.8972 30.5855 73.0612 28.7142L73.152 28.5681C74.3036 26.7129 75.8078 24.2899 78.881 24.2899C81.9539 24.2899 83.4583 26.713 84.6102 28.5683L84.6102 28.5684L84.7007 28.7142C85.8414 30.5979 86.4467 31.4282 87.5407 31.4282V31.4312C87.5873 31.432 87.6339 31.431 87.6804 31.4282C88.7629 31.4282 89.3565 30.5855 90.5205 28.7142L90.6113 28.5681C91.7629 26.7129 93.2671 24.2899 96.3403 24.2899C99.4132 24.2899 100.918 26.713 102.069 28.5683L102.07 28.5684L102.16 28.7142C103.301 30.5979 103.906 31.4282 105 31.4282C105.074 31.4326 105.147 31.4326 105.221 31.4282C106.304 31.4282 106.897 30.5855 108.061 28.7142L108.152 28.5681C109.304 26.7129 110.808 24.2899 113.881 24.2899C116.954 24.2899 118.458 26.713 119.61 28.5683L119.61 28.5684L119.701 28.7142C120.841 30.5979 121.447 31.4282 122.541 31.4282V31.4313C122.587 31.432 122.634 31.431 122.68 31.4282C123.763 31.4282 124.357 30.5855 125.52 28.7142L125.611 28.5681C126.763 26.7129 128.267 24.2899 131.34 24.2899C134.413 24.2899 135.918 26.713 137.069 28.5683L137.07 28.5684Z" fill="#FAAD1C"/>
<path fill-rule="evenodd" clip-rule="evenodd" d="M67.0695 28.5684L67.16 28.7142C68.3007 30.5979 68.906 31.4282 70 31.4282V35.1461C66.8457 35.1461 65.2743 32.6056 64.1802 30.7218C63.0862 28.8381 62.4227 28.0078 61.3403 28.0078C60.2577 28.0078 59.6641 28.8505 58.5001 30.7218L58.4564 30.7921C57.2974 32.6564 55.7494 35.1461 52.6804 35.1461H52.5407C52.5316 35.1461 52.5225 35.1461 52.5134 35.1462C52.4953 35.1462 52.4773 35.1463 52.4593 35.1461C49.3593 35.1028 47.8055 32.5893 46.7209 30.7218C45.6269 28.8381 44.9634 28.0078 43.881 28.0078C42.7984 28.0078 42.2048 28.8505 41.0408 30.7218L40.9971 30.7921C39.8381 32.6564 38.2901 35.1461 35.2211 35.1461H35C31.8457 35.1461 30.2743 32.6056 29.1802 30.7218C28.0862 28.8381 27.4227 28.0078 26.3403 28.0078C25.2577 28.0078 24.6641 28.8505 23.5001 30.7218L23.4564 30.7921C22.2974 32.6564 20.7494 35.1461 17.6804 35.1461H17.5407C17.5316 35.1461 17.5225 35.1461 17.5134 35.1462C17.4953 35.1462 17.4773 35.1463 17.4593 35.1461C14.3593 35.1028 12.8055 32.5893 11.7209 30.7218C10.6269 28.8381 9.96336 28.0078 8.88097 28.0078C7.79843 28.0078 7.2048 28.8505 6.04085 30.7218L5.99709 30.7921C4.8381 32.6564 3.2901 35.1461 0.221085 35.1461H0L1.6252e-07 31.4282C0.0736009 31.4326 0.147484 31.4326 0.221085 31.4282C1.30363 31.4282 1.89725 30.5855 3.0612 28.7142L3.15199 28.5681C4.30359 26.7129 5.80783 24.2899 8.88097 24.2899C11.9539 24.2899 13.4583 26.713 14.6102 28.5683L14.6102 28.5684L14.7007 28.7142C15.8414 30.5979 16.4467 31.4282 17.5407 31.4282V31.4313C17.5873 31.432 17.6339 31.431 17.6804 31.4282C18.7629 31.4282 19.3565 30.5855 20.5205 28.7142L20.6113 28.5681C21.7629 26.7129 23.2671 24.2899 26.3403 24.2899C29.4132 24.2899 30.9176 26.713 32.0695 28.5683L32.0695 28.5684L32.16 28.7142C33.3007 30.5979 33.906 31.4282 35 31.4282C35.0736 31.4326 35.1475 31.4326 35.2211 31.4282C36.3036 31.4282 36.8973 30.5855 38.0612 28.7142L38.152 28.5681C39.3036 26.7129 40.8078 24.2899 43.881 24.2899C46.9539 24.2899 48.4583 26.713 49.6102 28.5683L49.6102 28.5684L49.7007 28.7142C50.8414 30.5979 51.4467 31.4282 52.5407 31.4282V31.4313C52.5873 31.432 52.6339 31.431 52.6804 31.4282C53.7629 31.4282 54.3565 30.5855 55.5205 28.7142L55.6113 28.5681C56.7629 26.7129 58.2671 24.2899 61.3403 24.2899C64.4132 24.2899 65.9176 26.713 67.0695 28.5683L67.0695 28.5684Z" fill="#FAAD1C"/>
<path fill-rule="evenodd" clip-rule="evenodd" d="M207.07 28.5684L207.16 28.7142C208.301 30.5979 208.906 31.4282 210 31.4282V35.1461C206.846 35.1461 205.274 32.6056 204.18 30.7218C203.086 28.8381 202.423 28.0078 201.34 28.0078C200.258 28.0078 199.664 28.8505 198.5 30.7218L198.456 30.7921C197.297 32.6564 195.749 35.1461 192.68 35.1461H192.541C192.532 35.1461 192.523 35.1461 192.513 35.1462C192.495 35.1462 192.477 35.1463 192.459 35.1461C189.359 35.1028 187.805 32.5893 186.721 30.7218C185.627 28.8381 184.963 28.0078 183.881 28.0078C182.798 28.0078 182.205 28.8505 181.041 30.7218L180.997 30.7921C179.838 32.6564 178.29 35.1461 175.221 35.1461H175C171.846 35.1461 170.274 32.6056 169.18 30.7218C168.086 28.8381 167.423 28.0078 166.34 28.0078C165.258 28.0078 164.664 28.8505 163.5 30.7218L163.456 30.7921C162.297 32.6564 160.749 35.1461 157.68 35.1461H157.541C157.532 35.1461 157.523 35.1461 157.513 35.1462C157.495 35.1462 157.477 35.1463 157.459 35.1461C154.359 35.1028 152.805 32.5893 151.721 30.7218C150.627 28.8381 149.963 28.0078 148.881 28.0078C147.798 28.0078 147.205 28.8505 146.041 30.7218L145.997 30.7921C144.838 32.6564 143.29 35.1461 140.221 35.1461H140L140 31.4282C140.074 31.4326 140.147 31.4326 140.221 31.4282C141.304 31.4282 141.897 30.5855 143.061 28.7142L143.152 28.5681C144.304 26.7129 145.808 24.2899 148.881 24.2899C151.954 24.2899 153.458 26.713 154.61 28.5683L154.61 28.5684L154.701 28.7142C155.841 30.5979 156.447 31.4282 157.541 31.4282V31.4312C157.587 31.432 157.634 31.431 157.68 31.4282C158.763 31.4282 159.357 30.5855 160.52 28.7142L160.611 28.5681C161.763 26.7129 163.267 24.2899 166.34 24.2899C169.413 24.2899 170.918 26.713 172.069 28.5683L172.07 28.5684L172.16 28.7142C173.301 30.5979 173.906 31.4282 175 31.4282C175.074 31.4326 175.147 31.4326 175.221 31.4282C176.304 31.4282 176.897 30.5855 178.061 28.7142L178.152 28.5681C179.304 26.7129 180.808 24.2899 183.881 24.2899C186.954 24.2899 188.458 26.713 189.61 28.5683L189.61 28.5684L189.701 28.7142C190.841 30.5979 191.447 31.4282 192.541 31.4282V31.4313C192.587 31.432 192.634 31.431 192.68 31.4282C193.763 31.4282 194.357 30.5855 195.52 28.7142L195.611 28.5681C196.763 26.7129 198.267 24.2899 201.34 24.2899C204.413 24.2899 205.918 26.713 207.069 28.5683L207.07 28.5684Z" fill="#FAAD1C"/>
</svg>
